<svg xmlns="http://www.w3.org/2000/svg" xmlns:xlink="http://www.w3.org/1999/xlink" width="32" height="32" viewBox="0 0 32 32"><defs><linearGradient id="a"><stop offset="0" stop-color="#000092"/><stop offset="1" stop-color="#ff00f3"/></linearGradient><linearGradient id="b" x2="30" y1="15.999" y2="15.999" gradientUnits="userSpaceOnUse" xlink:href="#a"/></defs><path fill="url(#b)" d="M 0.46875,0.3203125 C 0.19969371,0.5278125 0,0.85235625 0,1.2226562 l 0,0.056641 c 0,0.3703 0.19966892,0.6949437 0.46875,0.9023437 C 0.62313395,2.300578 0.80577931,2.3769089 1,2.4296875 L 1,21 0.515625,21 C 0.22968952,21 0,21.223 0,21.5 0,21.777 0.22968952,22 0.515625,22 L 1,22 l 1,0 13.5,0 0,3.361328 -3.433594,5.894531 c -0.138502,0.237749 -0.05629,0.540474 0.183594,0.677735 0.239895,0.137265 0.543138,0.05611 0.681641,-0.181641 L 15.5,27.341797 15.5,31.5 c 0,0.277 0.223,0.5 0.5,0.5 0.277,0 0.5,-0.223 0.5,-0.5 l 0,-4.158203 2.568359,4.410156 c 0.138498,0.237741 0.441746,0.318906 0.681641,0.181641 0.239886,-0.137261 0.322091,-0.439994 0.183594,-0.677735 L 16.5,25.361328 16.5,22 30,22 l 1,0 0.484375,0 C 31.77031,22 32,21.777 32,21.5 32,21.223 31.77031,21 31.484375,21 L 31,21 31,2.4296875 C 31.19423,2.3769449 31.376883,2.3006354 31.53125,2.1816406 31.800301,1.9738406 32,1.6495969 32,1.2792969 l 0,-0.058594 C 32,0.85040312 31.800301,0.52575937 31.53125,0.31835938 31.262199,0.11105937 30.919474,-0.00195313 30.548828,-0.00195313 l -29.0976561,0 C 1,-0.00195313 0.74227466,0.23102792 0.46875,0.3203125 Z m 0.9824219,0.578125 0.4492187,0 28.6484374,0 c 0.185141,0 0.341932,0.0610125 0.435547,0.1328125 0.09361,0.072 0.119141,0.1333062 0.119141,0.1914062 l 0,0.056641 c 0,0.058 -0.02553,0.1193062 -0.119141,0.1914062 -0.09361,0.072 -0.250406,0.1328125 -0.435547,0.1328125 l -29.0976561,0 C 1.2660744,1.6036156 1.1092095,1.5425031 1.015625,1.4707031 0.9220405,1.3987031 0.89648437,1.3373969 0.89648438,1.2792969 l 0,-0.056641 c 0,-0.058 0.0255313,-0.1193062 0.11914062,-0.1914062 0.093609,-0.072 0.2504062,-0.1328125 0.4355469,-0.1328122 z M 2,2.5 30,2.5 30,21 16,21 2,21 Z m 26.09375,0.4941406 c -0.808638,1.4838 -1.474788,3.1274938 -1.978516,4.8710938 -0.288381,0.9983 -0.52217,2.0026969 -0.886718,2.8417966 -0.182057,0.4189 -0.397674,0.794472 -0.636719,1.076172 -0.237101,0.2798 -0.49845,0.460791 -0.728516,0.525391 -0.358197,0.099 -0.782599,-0.04105 -1.208984,-0.376953 l -0.002,0 c -0.432175,-0.3406 -0.845331,-0.864369 -1.265625,-1.417969 -0.420634,-0.5538001 -0.856185,-1.1476408 -1.402344,-1.6191408 -0.550422,-0.4752 -1.247578,-0.8367437 -2.009766,-0.7148437 -0.766213,0.122 -1.365159,0.6819156 -1.80664,1.3535156 -0.438489,0.6670999 -0.730779,1.4546469 -0.962891,2.2480469 -0.463608,1.585 -0.728359,3.261291 -1.376953,4.462891 -0.569096,1.054283 -1.406184,1.65838 -2.222656,1.763671 -0.119833,0.0084 -0.239521,0.01697 -0.359375,0.01367 -0.03697,-0.0021 -0.07466,0.0024 -0.111328,-0.002 l -0.07617,0 0,0.0078 0,0.0059 0,0.476563 L 11,18.978516 c 0.0096,0 0.01839,-0.0043 0.02734,-0.0078 l -0.002,0.01758 c 0.0067,4.71e-4 0.01309,1.48e-4 0.01953,0 l 0,0.0078 c 0.0051,2e-4 0.0086,0 0.01367,0 l 0,0.002 17.939453,0 0,-0.002 0,-0.01367 0,-5.03711 0,-5.210937 0,-0.00586 0,-5.5039062 z m -20.0898438,0.00391 0,0.00195 c -0.071365,0 -0.1400851,0.012596 -0.2109374,0.015625 -0.090815,0.00379 -0.1806263,0.010732 -0.2714844,0.019531 -0.2323973,0.022718 -0.4597377,0.061149 -0.6835938,0.1152344 -0.04217,0.010131 -0.084904,0.010218 -0.1269531,0.021484 l 0.00195,0.00781 C 5.2352997,3.5771424 3.9856566,4.6325691 3.3828125,6.0878906 2.6101262,7.9534906 3.0411807,10.109609 4.46875,11.537109 c 1.4277519,1.4278 3.5840003,1.856685 5.4492188,1.083985 C 11.374225,12.017892 12.424265,10.770005 12.818359,9.2929688 13,8.6150754 12.973581,8.1164442 12.970704,7.5117188 12.858863,6.3773813 12.369014,5.2948156 11.539062,4.4648438 11.199687,4.1254437 10.818054,3.8417875 10.408203,3.6171875 9.8511821,3.3119875 9.2409841,3.1163625 8.6132812,3.0390625 8.4166023,2.9802688 8.2117487,3.0120387 8.0039062,2.9980506 Z m 0.5,1.0351562 c 0.4981331,0.062605 0.9818115,0.2187037 1.4238282,0.4609375 0.3277996,0.1796 0.6327406,0.4061344 0.9042966,0.6777344 0.639043,0.6390606 1.030104,1.4639075 1.138672,2.3339844 L 11.160156,7.5 C 11.056012,6.8430645 10.75132,6.2239856 10.265625,5.7382812 9.7799165,5.2525168 9.1602785,4.9478652 8.5039062,4.84375 Z m -1,0.1152344 0,0.00391 0.00558,0.8141741 c -0.1098799,0.017398 -0.1913406,0.03723 -0.3002233,0.066406 l -2.789e-4,2.79e-4 C 6.2617536,5.2720016 5.4320143,5.8436038 5.046875,6.7734375 c -0.4951662,1.1954 -0.2221382,2.5728812 0.6933594,3.4882815 0.9151986,0.9152 2.2923039,1.190712 3.4882812,0.695312 C 10.157703,10.572134 10.729475,9.7432318 10.96875,8.796875 l 0,-0.013672 C 10.99795,8.6742127 11.02361,8.5787727 11.04102,8.46875 L 11.845703,8.5 C 11.65856,9.8966 10.861769,11.143859 9.5351562,11.693359 8.0420726,12.311859 6.3183457,11.968772 5.1757812,10.826172 4.0330709,9.6834719 3.6883264,7.9596969 4.3066406,6.4667969 4.8554807,5.1418969 6.1083811,4.3384375 7.5039062,4.1484412 Z m 20.5312498,1.5351563 0,4.0488281 c -0.759369,0.8097094 -1.399183,1.7011934 -1.886718,2.6503904 -0.29584,0.5762 -0.52131,1.116488 -0.859376,1.554688 -0.168894,0.2186 -0.365463,0.413806 -0.595703,0.566406 -0.228982,0.1519 -0.497394,0.263541 -0.77539,0.306641 -0.436186,0.068 -0.932538,-0.03406 -1.367188,-0.226563 -0.439843,-0.1952 -0.842067,-0.482068 -1.261719,-0.792968 -0.420058,-0.3111 -0.867121,-0.650463 -1.410156,-0.914063 -0.546819,-0.2657 -1.192802,-0.448219 -1.871094,-0.386719 -0.68107,0.061 -1.286183,0.35896 -1.75,0.75586 -0.239324,0.204775 -0.436116,0.433031 -0.607421,0.669922 0.158092,-0.633471 0.304981,-1.271943 0.478515,-1.865235 0.218476,-0.7468 0.490753,-1.451281 0.84375,-1.988281 0.349985,-0.5324003 0.79071,-0.8738409 1.154297,-0.9316409 0.363307,-0.058 0.799785,0.1257406 1.226563,0.4941406 0.431019,0.3721 0.84145,0.9123033 1.265625,1.4707033 0.424496,0.5592 0.871063,1.145397 1.4375,1.591797 0.572248,0.4512 1.307985,0.757328 2.0625,0.548828 l 0.002,0 c 0.479228,-0.1338 0.878415,-0.444678 1.205078,-0.830078 0.325099,-0.3832 0.579406,-0.838406 0.787109,-1.316406 0.414928,-0.955 0.649624,-1.9941318 0.927735,-2.9570318 0.254238,-0.88 0.657823,-1.6334187 0.99414,-2.4492187 z M 8.0078125,5.8007812 c 0.5740366,2.672e-4 1.1322872,0.2258063 1.5507813,0.6445313 0.4151244,0.415192 0.6400182,0.9660748 0.6445312,1.5351563 l 0,0.015625 C 10.203109,8.8912937 9.672084,9.68895 8.8457031,10.03125 8.0190575,10.37365 7.0801052,10.185534 6.4472656,9.5527344 5.8147472,8.9202344 5.628104,7.9813969 5.9707031,7.1542969 6.275192,6.4192269 6.9445437,5.9420197 7.7167969,5.8398438 7.8141496,5.8268956 7.9108182,5.8007361 8.0078125,5.8007812 Z m 20.0273435,5.5976568 0,3.009765 c -0.691253,0.339734 -1.299992,0.707552 -1.773437,1.117188 -0.309217,0.2676 -0.50704,0.484875 -0.832031,0.671875 -0.161843,0.093 -0.358606,0.181306 -0.605469,0.253906 l -0.002,0 c -0.244663,0.072 -0.544225,0.12779 -0.865235,0.15039 -0.501224,0.035 -1.045484,-0.01602 -1.509765,-0.107421 -0.466548,-0.092 -0.874563,-0.222928 -1.294922,-0.361329 -0.420755,-0.138599 -0.863217,-0.28829 -1.382813,-0.40039 -0.521791,-0.1123 -1.124225,-0.186109 -1.738281,-0.16211 -0.617044,0.025 -1.180765,0.14636 -1.632812,0.31836 -0.40466,0.153755 -0.707492,0.351072 -0.955079,0.550781 0.241809,-0.493421 0.427405,-0.983226 0.650391,-1.412109 0.208305,-0.4004 0.457,-0.762775 0.789062,-1.046875 0.327651,-0.2803 0.76221,-0.489097 1.210938,-0.529297 0.447202,-0.041 0.934853,0.08397 1.365234,0.292969 0.434143,0.2106 0.833063,0.507765 1.257813,0.822265 0.425138,0.315 0.884591,0.652491 1.443359,0.900391 0.563984,0.2501 1.227771,0.402175 1.904297,0.296875 0.43159,-0.067 0.826911,-0.234731 1.162109,-0.457031 0.333906,-0.2214 0.603354,-0.493497 0.824219,-0.779297 l 0.002,0 c 0.440867,-0.5708 0.682757,-1.178578 0.953125,-1.705078 0.261417,-0.509 0.676715,-0.951729 1.029297,-1.423828 z M 3,14 l 0,1 1,0 0,-1 z m 2,0 0,1 5,0 0,-1 z m 23.035156,1.552734 0,2.466797 -13.042968,0 c 0.354402,-0.278034 0.738139,-0.571328 0.988281,-0.785156 0.191437,-0.1637 0.416746,-0.314912 0.759765,-0.445313 0.339419,-0.1291 0.817323,-0.233506 1.330078,-0.253906 0.511439,-0.02 1.042639,0.04303 1.498047,0.140625 0.457582,0.099 0.859152,0.233347 1.283203,0.373047 0.424431,0.1397 0.878092,0.285825 1.410157,0.390625 0.534352,0.1049 1.150231,0.1672 1.761719,0.125 l 0.002,0 c 0.388576,-0.027 0.750793,-0.09495 1.070312,-0.189453 0.317281,-0.093 0.586535,-0.21255 0.814453,-0.34375 0.454485,-0.2616 0.725147,-0.554644 0.982422,-0.777344 0.280861,-0.243 0.736099,-0.469372 1.142578,-0.701172 z M 3,16 l 0,1 1,0 0,-1 z m 2,0 0,1 5,0 0,-1 z m -2,2 0,1 1,0 0,-1 z m 2,0 0,1 5,0 0,-1 z" color="#000" font-family="sans-serif" font-weight="400" overflow="visible" white-space="normal" style="line-height:normal;text-indent:0;text-align:start;text-decoration-line:none;text-decoration-style:solid;text-decoration-color:#000;text-transform:none;block-progression:tb;isolation:auto;mix-blend-mode:normal"/></svg>